<?xml version="1.0" encoding="UTF-8" standalone="no"?>
<!-- Uploaded to: SVG Repo, www.svgrepo.com, Generator: SVG Repo Mixer Tools -->

<svg
   width="800px"
   height="800px"
   viewBox="0 0 32 32"
   fill="none"
   version="1.1"
   id="svg8"
   sodipodi:docname="gmail-svgrepo-com.svg"
   inkscape:version="1.3 (0e150ed, 2023-07-21)"
   xmlns:inkscape="http://www.inkscape.org/namespaces/inkscape"
   xmlns:sodipodi="http://sodipodi.sourceforge.net/DTD/sodipodi-0.dtd"
   xmlns="http://www.w3.org/2000/svg"
   xmlns:svg="http://www.w3.org/2000/svg">
  <defs
     id="defs8" />
  <sodipodi:namedview
     id="namedview8"
     pagecolor="#ffffff"
     bordercolor="#000000"
     borderopacity="0.25"
     inkscape:showpageshadow="2"
     inkscape:pageopacity="0.0"
     inkscape:pagecheckerboard="0"
     inkscape:deskcolor="#d1d1d1"
     inkscape:zoom="1.0479572"
     inkscape:cx="245.23903"
     inkscape:cy="339.23142"
     inkscape:window-width="1920"
     inkscape:window-height="1080"
     inkscape:window-x="0"
     inkscape:window-y="0"
     inkscape:window-maximized="0"
     inkscape:current-layer="svg8" />
  <path
     d="M22.0515 8.52295L16.0644 13.1954L9.94043 8.52295V8.52421L9.94783 8.53053V15.0732L15.9954 19.8466L22.0515 15.2575V8.52295Z"
     fill="#EA4335"
     id="path2" />
  <path
     d="M23.6231 7.38639L22.0508 8.52292V15.2575L26.9983 11.459V9.17074C26.9983 9.17074 26.3978 5.90258 23.6231 7.38639Z"
     fill="#FBBC05"
     id="path3" />
  <path
     d="M22.0508 15.2575V23.9924H25.8428C25.8428 23.9924 26.9219 23.8813 26.9995 22.6513V11.459L22.0508 15.2575Z"
     fill="#34A853"
     id="path4" />
  <path
     d="M9.94811 24.0001V15.0732L9.94043 15.0669L9.94811 24.0001Z"
     fill="#C5221F"
     id="path5" />
  <path
     d="M9.94014 8.52404L8.37646 7.39382C5.60179 5.91001 5 9.17692 5 9.17692V11.4651L9.94014 15.0667V8.52404Z"
     fill="#C5221F"
     id="path6" />
  <path
     d="M9.94043 8.52441V15.0671L9.94811 15.0734V8.53073L9.94043 8.52441Z"
     fill="#C5221F"
     id="path7" />
  <path
     d="M5 11.4668V22.6591C5.07646 23.8904 6.15673 24.0003 6.15673 24.0003H9.94877L9.94014 15.0671L5 11.4668Z"
     fill="#4285F4"
     id="path8" />
</svg>
