<?xml version="1.0" encoding="UTF-8" standalone="no"?>
<!-- Uploaded to: SVG Repo, www.svgrepo.com, Generator: SVG Repo Mixer Tools -->

<svg
   height="800px"
   width="800px"
   version="1.1"
   id="Layer_1"
   viewBox="0 0 382 382"
   xml:space="preserve"
   sodipodi:docname="linkedin-svgrepo-com.svg"
   inkscape:version="1.3 (0e150ed, 2023-07-21)"
   xmlns:inkscape="http://www.inkscape.org/namespaces/inkscape"
   xmlns:sodipodi="http://sodipodi.sourceforge.net/DTD/sodipodi-0.dtd"
   xmlns="http://www.w3.org/2000/svg"
   xmlns:svg="http://www.w3.org/2000/svg"><defs
   id="defs1" /><sodipodi:namedview
   id="namedview1"
   pagecolor="#ffffff"
   bordercolor="#000000"
   borderopacity="0.25"
   inkscape:showpageshadow="2"
   inkscape:pageopacity="0.0"
   inkscape:pagecheckerboard="0"
   inkscape:deskcolor="#d1d1d1"
   inkscape:zoom="0.33855132"
   inkscape:cx="194.94829"
   inkscape:cy="78.274691"
   inkscape:window-width="1920"
   inkscape:window-height="1080"
   inkscape:window-x="0"
   inkscape:window-y="0"
   inkscape:window-maximized="0"
   inkscape:current-layer="Layer_1" />&#10;<path
   style="fill:#0077B7;"
   d="M347.445,0H34.555C15.471,0,0,15.471,0,34.555v312.889C0,366.529,15.471,382,34.555,382h312.889  C366.529,382,382,366.529,382,347.444V34.555C382,15.471,366.529,0,347.445,0z M118.207,329.844c0,5.554-4.502,10.056-10.056,10.056  H65.345c-5.554,0-10.056-4.502-10.056-10.056V150.403c0-5.554,4.502-10.056,10.056-10.056h42.806  c5.554,0,10.056,4.502,10.056,10.056V329.844z M86.748,123.432c-22.459,0-40.666-18.207-40.666-40.666S64.289,42.1,86.748,42.1  s40.666,18.207,40.666,40.666S109.208,123.432,86.748,123.432z M341.91,330.654c0,5.106-4.14,9.246-9.246,9.246H286.73  c-5.106,0-9.246-4.14-9.246-9.246v-84.168c0-12.556,3.683-55.021-32.813-55.021c-28.309,0-34.051,29.066-35.204,42.11v97.079  c0,5.106-4.139,9.246-9.246,9.246h-44.426c-5.106,0-9.246-4.14-9.246-9.246V149.593c0-5.106,4.14-9.246,9.246-9.246h44.426  c5.106,0,9.246,4.14,9.246,9.246v15.655c10.497-15.753,26.097-27.912,59.312-27.912c73.552,0,73.131,68.716,73.131,106.472  L341.91,330.654L341.91,330.654z"
   id="path1" />&#10;<path
   style="fill:#ffffff;stroke-width:1.51181"
   d="m 153.00704,251.29104 c -18.50972,-6.69838 -37.94119,-25.45953 -47.1084,-45.48334 -25.846092,-56.45532 22.52609,-122.155879 84.54749,-114.834956 52.55748,6.203814 85.13149,56.872976 69.83822,108.633966 -5.48433,18.56205 -34.32456,47.66816 -52.13172,52.61232 -16.9978,4.71945 -40.63929,4.32161 -55.14559,-0.92799 z"
   id="path2"
   transform="scale(0.4775)" /><path
   style="fill:#ffffff;stroke-width:1.51181"
   d="m 124.2542,703.97037 c -5.08361,-5.61732 -5.61013,-24.52423 -5.61013,-201.45278 0,-172.98356 0.60757,-195.86124 5.32687,-200.58054 7.4274,-7.4274 105.16103,-7.86461 115.21167,-0.51539 6.38145,4.66623 6.5801,10.69346 6.5801,199.64411 0,186.83647 -0.26503,195.12548 -6.45758,201.96816 -6.02505,6.6576 -9.90659,7.13556 -57.9492,7.13556 -45.57918,0 -52.13578,-0.7118 -57.10173,-6.19912 z"
   id="path3"
   transform="scale(0.4775)" /><path
   style="fill:#ffffff;stroke-width:1.51181"
   d="m 168.07779,255.17983 c -35.58818,-5.27906 -64.3571,-35.46631 -69.298282,-72.71473 -4.158546,-31.34866 14.079602,-65.88284 43.357692,-82.09839 13.91515,-7.706851 18.82464,-8.800091 39.51916,-8.800091 20.96847,0 25.45996,1.032136 39.87578,9.163391 39.97058,22.54541 54.54372,69.86026 34.00251,110.3964 -16.22687,32.02218 -50.8825,49.47877 -87.45686,44.05342 z"
   id="path4"
   transform="scale(0.4775)" /><path
   style="fill:#ffffff;stroke-width:1.51181"
   d="m 124.058,704.47222 c -5.7888,-5.78882 -5.90752,-9.84587 -5.90752,-201.8749 0,-195.47411 0.0156,-195.98153 6.21763,-201.59425 5.60961,-5.07663 11.21178,-5.62688 57.28825,-5.62688 46.07647,0 51.67863,0.55025 57.28825,5.62688 6.20198,5.61272 6.21763,6.12014 6.21763,201.59425 0,192.02903 -0.11872,196.08608 -5.90753,201.8749 -5.45742,5.45743 -9.84587,5.90752 -57.59835,5.90752 -47.75249,0 -52.14093,-0.45009 -57.59836,-5.90752 z"
   id="path5"
   transform="scale(0.4775)" /><path
   style="fill:#ffffff;stroke-width:1.51181"
   d="m 313.2517,702.51886 c -6.15206,-7.82106 -6.17931,-8.84442 -5.38347,-202.22837 0.74901,-182.0031 1.13527,-194.70298 6.07196,-199.64091 4.66718,-4.66835 11.32437,-5.27339 58.02268,-5.27339 64.84593,0 65.19389,0.16978 65.19389,31.80868 v 20.55493 l 16.98413,-17.62472 c 18.60507,-19.3068 31.63059,-27.09062 58.4257,-34.91421 21.65512,-6.32283 69.938,-7.13507 92.9546,-1.56373 39.33469,9.52124 69.61379,34.51917 87.15045,71.95002 18.67752,39.86591 19.8525,50.83401 21.32466,199.06439 1.31283,132.18392 1.26864,133.45859 -4.83803,139.56525 -5.80015,5.80016 -9.3527,6.16294 -60.34973,6.16294 -51.31963,0 -54.48454,-0.32869 -59.81368,-6.21212 -5.28788,-5.83787 -5.71586,-13.53446 -7.10376,-127.75021 -1.44604,-118.9999 -1.61869,-121.84574 -8.26713,-136.27009 -12.96954,-28.13854 -30.86685,-39.78284 -61.14628,-39.78284 -32.16931,0 -53.43416,15.62045 -66.84712,49.10368 -6.7221,16.7806 -6.94007,20.26979 -8.42565,134.88035 -1.45317,112.10938 -1.79525,117.8515 -7.25867,121.84268 -4.43876,3.24261 -17.56506,4.18855 -58.12241,4.18855 h -52.38878 z"
   id="path6"
   transform="scale(0.4775)" /></svg>
