<?xml version="1.0" encoding="UTF-8" standalone="no"?>
<!-- Uploaded to: SVG Repo, www.svgrepo.com, Generator: SVG Repo Mixer Tools -->

<svg
   height="800px"
   width="800px"
   version="1.1"
   id="Layer_1"
   viewBox="0 0 382 382"
   xml:space="preserve"
   sodipodi:docname="linkedin-svgrepo-com.svg"
   inkscape:version="1.3 (0e150ed, 2023-07-21)"
   xmlns:inkscape="http://www.inkscape.org/namespaces/inkscape"
   xmlns:sodipodi="http://sodipodi.sourceforge.net/DTD/sodipodi-0.dtd"
   xmlns="http://www.w3.org/2000/svg"
   xmlns:svg="http://www.w3.org/2000/svg"><defs
   id="defs1" /><sodipodi:namedview
   id="namedview1"
   pagecolor="#ffffff"
   bordercolor="#000000"
   borderopacity="0.25"
   inkscape:showpageshadow="2"
   inkscape:pageopacity="0.0"
   inkscape:pagecheckerboard="0"
   inkscape:deskcolor="#d1d1d1"
   inkscape:zoom="0.48098332"
   inkscape:cx="278.59594"
   inkscape:cy="656.98744"
   inkscape:window-width="1920"
   inkscape:window-height="1027"
   inkscape:window-x="0"
   inkscape:window-y="25"
   inkscape:window-maximized="0"
   inkscape:current-layer="Layer_1" />&#10;<path
   style="fill:#0077B7;"
   d="M347.445,0H34.555C15.471,0,0,15.471,0,34.555v312.889C0,366.529,15.471,382,34.555,382h312.889  C366.529,382,382,366.529,382,347.444V34.555C382,15.471,366.529,0,347.445,0z M118.207,329.844c0,5.554-4.502,10.056-10.056,10.056  H65.345c-5.554,0-10.056-4.502-10.056-10.056V150.403c0-5.554,4.502-10.056,10.056-10.056h42.806  c5.554,0,10.056,4.502,10.056,10.056V329.844z M86.748,123.432c-22.459,0-40.666-18.207-40.666-40.666S64.289,42.1,86.748,42.1  s40.666,18.207,40.666,40.666S109.208,123.432,86.748,123.432z M341.91,330.654c0,5.106-4.14,9.246-9.246,9.246H286.73  c-5.106,0-9.246-4.14-9.246-9.246v-84.168c0-12.556,3.683-55.021-32.813-55.021c-28.309,0-34.051,29.066-35.204,42.11v97.079  c0,5.106-4.139,9.246-9.246,9.246h-44.426c-5.106,0-9.246-4.14-9.246-9.246V149.593c0-5.106,4.14-9.246,9.246-9.246h44.426  c5.106,0,9.246,4.14,9.246,9.246v15.655c10.497-15.753,26.097-27.912,59.312-27.912c73.552,0,73.131,68.716,73.131,106.472  L341.91,330.654L341.91,330.654z"
   id="path1" />&#10;<path
   style="fill:#ffffff;stroke-width:1.51181"
   d="m 306.94034,316.81206 c 0.0115,-4.75122 0.014,-4.93162 0.077,-5.47205 0.23103,-1.98117 0.59968,-3.48537 1.27071,-5.18486 1.03242,-2.61474 2.63402,-4.96844 4.73796,-6.96285 3.05206,-2.89315 7.08016,-4.73127 11.30718,-5.1597 0.88457,-0.0897 1.76261,-0.0942 18.31001,-0.0943 l 16.97499,-1.5e-4 v 13.89357 13.89356 h -26.34486 -26.34486 z"
   id="path5"
   transform="scale(0.4775)" /><path
   style="fill:#ffffff;stroke-width:1.51181"
   d="m 209.44353,307.08577 v -13.14923 l 9.18217,0.0102 c 9.88913,0.011 9.32442,0.002 10.57929,0.16347 3.87292,0.49742 7.61901,2.11965 10.63362,4.60487 1.25759,1.03675 2.51341,2.34355 3.45011,3.5902 2.24837,2.99234 3.6371,6.42455 4.09525,10.12134 0.12516,1.00985 0.13143,1.20603 0.14527,4.54064 l 0.0136,3.2677 h -19.04963 -19.04963 z"
   id="path6"
   transform="scale(0.4775)" /><path
   style="fill:#ffffff;stroke-width:1.51181"
   d="m 197.27308,238.3631 v -18.68956 h 27.91132 c 15.35122,0 27.91131,0.007 27.91131,0.016 0,0.0244 -0.95001,1.44322 -1.42367,2.12625 -5.26863,7.59747 -11.8323,14.37828 -19.25368,19.89061 -10.41204,7.73369 -22.4273,12.98753 -35.0599,15.33043 l -0.0854,0.0158 z"
   id="path7"
   transform="scale(0.4775)" /><rect
   style="fill:#0077b7;stroke-width:0.721887;fill-opacity:1"
   id="rect1"
   width="66.261955"
   height="438.69983"
   x="-31.988531"
   y="-30.846098" /><rect
   style="fill:#0077b7;stroke-width:0.721887;fill-opacity:1"
   id="rect1-7"
   width="66.261955"
   height="438.69983"
   x="348.5748"
   y="-30.845917" /><rect
   style="fill:#0077b7;stroke-width:0.721887;fill-opacity:1"
   id="rect1-7-4"
   width="66.261955"
   height="438.69983"
   x="-35.416016"
   y="-32.129066"
   transform="rotate(-90)" /><rect
   style="fill:#0077b7;stroke-width:0.721887;fill-opacity:1"
   id="rect1-7-4-3"
   width="66.261955"
   height="438.69983"
   x="-407.74393"
   y="-32.235313"
   transform="rotate(-90)" /></svg>
