<?xml version="1.0" encoding="UTF-8" standalone="no"?>
<!-- Uploaded to: SVG Repo, www.svgrepo.com, Generator: SVG Repo Mixer Tools -->

<svg
   height="800px"
   width="800px"
   version="1.1"
   id="Layer_1"
   viewBox="0 0 382 382"
   xml:space="preserve"
   sodipodi:docname="linkedin-svgrepo-com.svg"
   inkscape:version="1.3 (0e150ed, 2023-07-21)"
   xmlns:inkscape="http://www.inkscape.org/namespaces/inkscape"
   xmlns:sodipodi="http://sodipodi.sourceforge.net/DTD/sodipodi-0.dtd"
   xmlns="http://www.w3.org/2000/svg"
   xmlns:svg="http://www.w3.org/2000/svg"><defs
   id="defs1" /><sodipodi:namedview
   id="namedview1"
   pagecolor="#ffffff"
   bordercolor="#000000"
   borderopacity="0.25"
   inkscape:showpageshadow="2"
   inkscape:pageopacity="0.0"
   inkscape:pagecheckerboard="0"
   inkscape:deskcolor="#d1d1d1"
   inkscape:zoom="0.92122307"
   inkscape:cx="343.02224"
   inkscape:cy="500.96444"
   inkscape:window-width="1920"
   inkscape:window-height="1080"
   inkscape:window-x="0"
   inkscape:window-y="0"
   inkscape:window-maximized="0"
   inkscape:current-layer="Layer_1" />&#10;<rect
   style="fill:#ffffff;stroke-width:0.721889"
   id="rect7"
   width="335.74384"
   height="339.23209"
   x="24.417736"
   y="20.057425" /><path
   style="fill:#0077B7;"
   d="M347.445,0H34.555C15.471,0,0,15.471,0,34.555v312.889C0,366.529,15.471,382,34.555,382h312.889  C366.529,382,382,366.529,382,347.444V34.555C382,15.471,366.529,0,347.445,0z M118.207,329.844c0,5.554-4.502,10.056-10.056,10.056  H65.345c-5.554,0-10.056-4.502-10.056-10.056V150.403c0-5.554,4.502-10.056,10.056-10.056h42.806  c5.554,0,10.056,4.502,10.056,10.056V329.844z M86.748,123.432c-22.459,0-40.666-18.207-40.666-40.666S64.289,42.1,86.748,42.1  s40.666,18.207,40.666,40.666S109.208,123.432,86.748,123.432z M341.91,330.654c0,5.106-4.14,9.246-9.246,9.246H286.73  c-5.106,0-9.246-4.14-9.246-9.246v-84.168c0-12.556,3.683-55.021-32.813-55.021c-28.309,0-34.051,29.066-35.204,42.11v97.079  c0,5.106-4.139,9.246-9.246,9.246h-44.426c-5.106,0-9.246-4.14-9.246-9.246V149.593c0-5.106,4.14-9.246,9.246-9.246h44.426  c5.106,0,9.246,4.14,9.246,9.246v15.655c10.497-15.753,26.097-27.912,59.312-27.912c73.552,0,73.131,68.716,73.131,106.472  L341.91,330.654L341.91,330.654z"
   id="path1" />&#10;<path
   style="fill:#ffffff;stroke-width:1.51181"
   d="m 124.2542,703.97037 c -5.08361,-5.61732 -5.61013,-24.52423 -5.61013,-201.45278 0,-172.98356 0.60757,-195.86124 5.32687,-200.58054 7.4274,-7.4274 105.16103,-7.86461 115.21167,-0.51539 6.38145,4.66623 6.5801,10.69346 6.5801,199.64411 0,186.83647 -0.26503,195.12548 -6.45758,201.96816 -6.02505,6.6576 -9.90659,7.13556 -57.9492,7.13556 -45.57918,0 -52.13578,-0.7118 -57.10173,-6.19912 z"
   id="path2"
   transform="scale(0.4775)" /><path
   style="fill:#ffffff;stroke-width:1.51181"
   d="m 153.00704,251.29104 c -18.50972,-6.69838 -37.94119,-25.45953 -47.1084,-45.48334 -25.846092,-56.45532 22.52609,-122.155879 84.54749,-114.834956 52.55748,6.203814 85.13149,56.872976 69.83822,108.633966 -5.48433,18.56205 -34.32456,47.66816 -52.13172,52.61232 -16.9978,4.71945 -40.63929,4.32161 -55.14559,-0.92799 z"
   id="path3"
   transform="scale(0.4775)" /><path
   style="fill:#ffffff;stroke-width:1.51181"
   d="m 314.0847,703.97037 c -5.0836,-5.61732 -5.61012,-24.52423 -5.61012,-201.45278 0,-172.98356 0.60757,-195.86124 5.32687,-200.58054 4.39234,-4.39234 14.70754,-5.32688 58.79666,-5.32688 63.40088,0 64.69003,0.6332 64.69003,31.77444 v 19.37619 l 17.79661,-18.10031 c 30.23805,-30.75407 63.57897,-41.80455 117.6053,-38.97896 74.58232,3.90066 115.87036,40.10501 134.33314,117.79305 5.08549,21.39884 6.26827,45.96396 7.47118,155.169 1.27231,115.50415 0.82577,130.66622 -4.06837,138.13557 -5.47766,8.35997 -5.69776,8.39034 -60.82624,8.39034 -49.29645,0 -55.9403,-0.67586 -60.93878,-6.19912 -4.98144,-5.5044 -5.61013,-18.7204 -5.61013,-117.93187 0,-117.83108 -2.39921,-141.17575 -16.50692,-160.61477 -15.56824,-21.45149 -44.47658,-30.63896 -73.44991,-23.34339 -22.88554,5.76264 -40.23451,24.49075 -49.01162,52.90772 -6.21286,20.11489 -6.79426,31.49432 -6.79426,132.97922 0,103.21245 -0.43398,111.37472 -6.19913,116.59208 -5.20768,4.71291 -14.61112,5.61013 -58.79665,5.61013 -46.65057,0 -53.23184,-0.70091 -58.20766,-6.19912 z"
   id="path4"
   transform="scale(0.4775)" /><path
   style="fill:#ffffff;stroke-width:1.51181"
   d="m 306.94034,316.81206 c 0.0115,-4.75122 0.014,-4.93162 0.077,-5.47205 0.23103,-1.98117 0.59968,-3.48537 1.27071,-5.18486 1.03242,-2.61474 2.63402,-4.96844 4.73796,-6.96285 3.05206,-2.89315 7.08016,-4.73127 11.30718,-5.1597 0.88457,-0.0897 1.76261,-0.0942 18.31001,-0.0943 l 16.97499,-1.5e-4 v 13.89357 13.89356 h -26.34486 -26.34486 z"
   id="path5"
   transform="scale(0.4775)" /><path
   style="fill:#ffffff;stroke-width:1.51181"
   d="m 209.44353,307.08577 v -13.14923 l 9.18217,0.0102 c 9.88913,0.011 9.32442,0.002 10.57929,0.16347 3.87292,0.49742 7.61901,2.11965 10.63362,4.60487 1.25759,1.03675 2.51341,2.34355 3.45011,3.5902 2.24837,2.99234 3.6371,6.42455 4.09525,10.12134 0.12516,1.00985 0.13143,1.20603 0.14527,4.54064 l 0.0136,3.2677 h -19.04963 -19.04963 z"
   id="path6"
   transform="scale(0.4775)" /><path
   style="fill:#ffffff;stroke-width:1.51181"
   d="m 197.27308,238.3631 v -18.68956 h 27.91132 c 15.35122,0 27.91131,0.007 27.91131,0.016 0,0.0244 -0.95001,1.44322 -1.42367,2.12625 -5.26863,7.59747 -11.8323,14.37828 -19.25368,19.89061 -10.41204,7.73369 -22.4273,12.98753 -35.0599,15.33043 l -0.0854,0.0158 z"
   id="path7"
   transform="scale(0.4775)" /></svg>
